<?xml version="1.0" encoding="utf-8"?><!DOCTYPE svg PUBLIC "-//W3C//DTD SVG 1.1//EN" "http://www.w3.org/Graphics/SVG/1.1/DTD/svg11.dtd"><svg version="1.1" id="Contours" xmlns="http://www.w3.org/2000/svg" xmlns:xlink="http://www.w3.org/1999/xlink" x="0px" y="0px" width="600.063110px" height="1058.063110px" viewBox="0.000000 0.000000 1058.063110 755.183716" enable-background="new 0 0 1058.063110 1058.063110" xml:space="preserve" stroke="black" fill="none" stroke-linecap='round' stroke-linejoin='round'><path class="selected"  fill="none" opacity="1.000000" stroke="none"
 	d="
M1058.063113 0.003857 C1058.061898 251.730473 1058.060683 503.457090 1058.059469 755.183707 C705.449224 754.725469 352.838978 754.267232 0.228733 753.808995 C0.152488 502.539331 0.076244 251.269666 0.000000 -0.000000 C352.687705 0.001286 705.375409 0.002571 1058.063113 0.003857 M519.878452 174.366053 C449.564166 178.111432 382.984297 223.185377 353.389016 287.077834 C323.793735 350.970290 332.469872 430.903162 375.084535 486.957753 C416.723557 541.729005 488.952640 571.527551 557.098437 562.048691 C625.244234 552.569832 686.598987 504.190208 711.709538 440.134306 C736.820090 376.078403 724.688681 298.891470 681.138952 245.626852 C642.538975 198.416166 580.774140 171.122367 519.878452 174.366053 z"/><path class="selected"  fill="white" opacity="1.000000" stroke="none"
 	d="
M423.757502 397.971363 C425.688404 402.440578 427.054884 407.153298 427.814226 411.962213 C425.326117 411.968381 422.838008 411.974550 420.349899 411.980718 C420.819648 407.181743 421.970597 402.449957 423.757501 397.971363 z"/><path class="selected"  fill="white" opacity="1.000000" stroke="none"
 	d="
M543.498321 420.002633 C543.541948 421.718511 543.378366 423.486635 542.611071 425.022016 C540.681481 428.883190 534.928473 429.941345 531.509432 427.306552 C528.090390 424.671759 527.477970 419.238267 529.896254 415.662812 C532.601783 411.662662 539.455049 410.776784 542.146440 414.786461 C543.161251 416.298339 543.452040 418.182338 543.498322 420.002632 z"/><path class="selected"  fill="white" opacity="1.000000" stroke="none"
 	d="
M641.050992 417.346286 C641.090337 419.464892 641.568698 421.620142 641.059471 423.677015 C639.855714 428.539262 632.735494 430.346549 628.997120 427.012626 C625.258746 423.678703 625.769054 416.985527 629.625302 413.788680 C631.539747 412.201595 634.182142 411.395499 636.588763 412.021685 C638.995385 412.647872 641.004817 414.859963 641.050991 417.346286 z"/><path class="selected"  fill="white" opacity="1.000000" stroke="none"
 	d="
M672.579311 252.455003 C716.806669 307.227511 725.443189 388.293443 693.748157 451.154493 C662.053125 514.015544 591.739576 555.274235 521.403670 552.283052 C451.067765 549.291869 384.510979 502.212478 358.267330 436.887462 C332.023682 371.562447 347.511572 291.522457 396.229466 240.702642 C432.312966 203.062329 484.965214 181.909834 537.060357 184.125290 C589.155500 186.340746 639.821781 211.887080 672.579311 252.455003 M498.284618 346.176857 C499.090415 343.027996 498.315689 339.573469 499.478140 336.538120 C500.640591 333.502771 505.525320 331.759700 506.917514 334.696779 C506.505516 337.206777 506.113013 339.886453 507.148439 342.209754 C508.183866 344.533054 511.253397 346.122122 513.360904 344.697958 C513.131524 340.253928 512.902145 335.809899 512.672765 331.365869 C512.569992 329.374715 512.445380 327.304189 511.477038 325.561326 C510.508696 323.818464 508.427397 322.520483 506.524442 323.115478 C504.576113 323.724664 502.635838 321.642434 502.570230 319.602145 C502.504622 317.561856 503.669814 315.710260 504.791509 314.004715 C506.762420 319.177639 513.888046 321.553032 518.568666 318.597456 C516.739029 316.530561 513.966908 315.634294 511.574515 314.257311 C509.182122 312.880328 506.909741 310.443377 507.378862 307.723165 C510.500431 309.364210 514.943450 306.951334 515.228804 303.436252 C515.514157 299.921170 511.461799 296.820235 508.156399 298.049690 C504.850999 299.279145 503.833168 304.327373 506.429138 306.714455 C504.583710 305.690887 502.158394 306.468531 500.664081 307.958608 C499.169768 309.448684 498.391532 311.491926 497.654676 313.469384 C496.232540 317.285892 494.810404 321.102400 493.388267 324.918907 C492.738249 320.556517 492.088231 316.194126 491.438213 311.831736 C491.120034 309.696379 490.412334 307.113441 488.309770 306.623330 C485.099896 305.875104 483.666937 310.533659 483.897616 313.821502 C484.222535 318.452536 484.856053 323.061893 485.792577 327.608866 C486.373036 330.427089 487.910263 333.887938 490.781651 333.702344 C492.996828 333.559165 494.873377 335.592658 495.351559 337.760342 C495.829741 339.928025 495.265458 342.174303 494.704186 344.321973 C495.897663 344.940268 497.091141 345.558562 498.284618 346.176857 M408.189237 439.473822 C411.556567 439.659223 415.252529 439.747787 417.911750 437.673701 C420.570972 435.599615 420.793636 430.498076 417.599885 429.414911 C417.016323 429.216994 416.380339 429.171504 415.829986 428.894329 C414.085569 428.015789 414.240766 425.246691 415.649734 423.894053 C417.058702 422.541414 419.138153 422.225928 421.075251 421.975981 C423.735867 421.632675 426.516823 421.301248 429.038876 422.215570 C431.560930 423.129891 433.696279 425.714691 433.149258 428.341001 C429.438432 427.343222 426.915852 433.091965 429.148016 436.219782 C431.380180 439.347599 435.746361 439.975817 439.587023 439.852877 C442.459799 439.760919 445.509212 439.324777 447.695967 437.459461 C449.882721 435.594146 450.681286 431.876157 448.644735 429.847918 C444.841145 427.831297 443.264633 423.297880 442.015651 419.177917 C439.697367 411.530688 437.379082 403.883458 435.060797 396.236229 C433.867511 392.299987 432.348315 387.957622 428.689142 386.079224 C424.740862 384.052415 419.676357 385.889886 416.722603 389.202318 C413.768849 392.514750 412.467705 396.950408 411.412878 401.261348 C408.840728 411.773389 406.913970 423.130371 399.556640 431.066909 C397.829573 432.929940 398.830504 436.187484 400.896845 437.665278 C402.963186 439.143072 405.652676 439.334163 408.189236 439.473823 M552.966698 384.885429 C552.022215 384.127881 550.762363 383.918952 549.560583 383.771806 C546.698325 383.421351 543.653605 383.303324 541.079993 384.604040 C538.506382 385.904756 536.668033 389.062950 537.749903 391.735944 C538.554238 393.723229 540.617497 394.844542 542.105372 396.388070 C543.593247 397.931599 544.357070 400.787050 542.595120 402.008437 C532.884659 398.933565 521.129136 404.394031 517.641837 413.964122 C514.154539 423.534214 520.020481 435.563251 529.835040 438.287647 C532.914673 439.142514 536.156291 439.156329 539.352363 439.164179 C543.548841 439.174487 547.745318 439.184794 551.941796 439.195102 C554.481435 439.201340 557.148306 439.176422 559.368405 437.943147 C561.588505 436.709873 563.114356 433.831576 561.975953 431.561368 C560.236009 428.091562 553.708017 427.896754 553.807177 424.016404 C554.090255 412.938974 554.373332 401.861544 554.656410 390.784115 C554.710675 388.660604 554.623743 386.214507 552.966699 384.885428 M640.707839 385.001452 C639.379818 385.001217 637.942794 385.036421 636.894003 385.851085 C634.447955 387.751090 636.149495 391.666702 638.170988 394.013345 C640.192481 396.359988 642.532595 399.621969 640.816863 402.200618 C634.110648 399.989058 626.270740 401.660100 621.049185 406.414012 C616.347219 410.694868 613.881275 417.372146 614.887679 423.650789 C615.894084 429.929432 620.429138 435.571611 626.419380 437.704968 C630.105246 439.017650 634.107498 439.036117 638.020136 439.039809 C642.265109 439.043814 646.510082 439.047819 650.755055 439.051825 C653.869789 439.054764 657.502076 438.799052 659.250984 436.221670 C660.489897 434.395875 660.233682 431.703547 658.672625 430.144210 C657.111568 428.584873 654.418960 428.331626 652.594531 429.572550 C652.017577 414.724451 651.818349 399.861678 651.997104 385.003450 C648.234015 385.002784 644.470927 385.002118 640.707839 385.001452 M575.251679 439.403351 C577.541458 439.258868 579.831237 439.114384 582.121017 438.969901 C583.244304 438.899022 584.388538 438.823677 585.437137 438.414729 C587.833376 437.480209 589.337050 434.682700 588.794483 432.168558 C588.251916 429.654416 585.728361 427.726006 583.159985 427.862879 C582.203442 424.237219 581.284874 420.325507 582.608441 416.817151 C583.932008 413.308796 588.506684 410.824202 591.566586 412.991548 C594.006216 414.719551 594.200405 418.202882 594.157825 421.192193 C594.095203 425.588477 594.032582 429.984762 593.969961 434.381047 C593.956271 435.342088 593.958737 436.363994 594.469719 437.178048 C595.203446 438.346957 596.714800 438.701641 598.071380 438.955397 C601.712982 439.636577 605.731223 440.257372 608.913803 438.360940 C612.096383 436.464508 613.002212 430.906634 609.646077 429.337677 C607.003365 428.102236 605.889233 424.890574 605.799766 421.974716 C605.710299 419.058858 606.365481 416.136428 606.041512 413.237242 C605.137384 405.146221 595.279507 399.484241 587.835135 402.780208 C580.774471 405.906291 571.336728 398.766483 565.348806 403.641947 C564.834658 405.737255 564.322336 407.955830 564.951366 410.019560 C565.580396 412.083291 567.809062 413.822790 569.846943 413.114478 C570.120680 417.995100 570.176039 422.887965 570.012798 427.773532 C565.761294 427.401020 562.517648 433.239930 565.080182 436.652769 C567.283526 439.587231 571.589386 439.634440 575.251679 439.403351 M479.090962 412.500061 C480.552385 413.082580 482.175979 413.251818 483.726121 412.983217 C484.256438 418.013137 484.249170 423.099563 483.704482 428.127947 C481.138502 426.777524 477.772950 429.302755 477.638872 432.199291 C477.504793 435.095827 479.777864 437.670714 482.446210 438.805538 C485.114556 439.940362 488.110494 439.938647 491.009621 439.884243 C493.835857 439.831206 496.761336 439.721851 499.300862 438.480390 C501.840388 437.238929 503.893816 434.546215 503.484888 431.749218 C503.075960 428.952221 499.415143 426.918131 497.183790 428.653493 C495.546011 425.600727 494.894785 422.028449 495.349969 418.594136 C495.615560 416.590263 496.413371 414.435280 498.220895 413.530350 C500.028420 412.625419 502.801595 413.988455 502.477126 415.983640 C505.530408 415.992694 508.583689 416.001745 511.636970 416.010796 C512.144304 411.753623 512.285099 407.452831 512.057285 403.171591 C501.213978 402.187231 490.287943 402.115767 479.432688 402.958203 C478.988780 406.115540 478.874051 409.319058 479.090962 412.500061 M547.738299 324.612533 C546.775035 325.819047 546.823466 327.517924 546.918757 329.058856 C547.112107 332.185445 547.305457 335.312033 547.498806 338.438621 C547.618737 340.377974 547.766670 342.408407 548.796329 344.056217 C549.825987 345.704026 552.044885 346.783663 553.770223 345.889974 C554.125738 342.106370 554.214264 338.297705 554.034925 334.501670 C554.881709 334.062476 555.728494 333.623282 556.575278 333.184088 C557.382910 333.629520 558.190542 334.074953 558.998173 334.520386 C559.783912 336.456809 558.949625 338.627323 558.826446 340.713455 C558.703268 342.799587 560.089351 345.422328 562.133624 344.988665 C564.421987 344.503223 564.284600 341.238746 563.831001 338.943858 C563.377403 336.648970 564.298373 333.219910 566.572828 333.766825 C568.580888 334.249683 570.670524 332.914370 571.727439 331.140000 C572.784354 329.365631 573.042210 327.243746 573.277214 325.191861 C573.715933 321.361294 574.154652 317.530727 574.593371 313.700160 C574.900028 311.022663 574.586883 307.418905 571.948782 306.868043 C569.055582 306.263914 567.438544 310.057301 566.983264 312.977626 C566.356290 316.999244 565.729317 321.020861 565.102344 325.042478 C563.619176 321.010291 562.136008 316.978104 560.652839 312.945917 C559.955525 311.050177 559.182409 309.049041 557.573274 307.828074 C555.964138 306.607106 553.247180 306.627174 552.257242 308.387885 C549.694093 312.946737 544.963571 316.222229 539.794377 317.017383 C541.045907 319.610531 544.524046 320.452848 547.286760 319.641575 C550.049474 318.830302 552.255900 316.794271 554.353763 314.822033 C555.211291 316.381869 556.068818 317.941705 556.926346 319.501541 C556.801957 323.243877 550.074529 321.686345 547.738300 324.612535 M452.637698 403.096102 C451.975187 405.251227 451.307595 407.539907 451.861599 409.725442 C452.415603 411.910977 454.699414 413.822439 456.841760 413.119706 C457.167856 418.085420 457.183698 423.071487 456.889162 428.039173 C454.386824 427.240692 451.640414 429.583870 451.454666 432.203940 C451.268917 434.824009 453.097334 437.275139 455.410720 438.519131 C457.724105 439.763123 460.437058 440.010067 463.063658 440.025550 C465.824450 440.041821 468.694567 439.798200 471.090192 438.425902 C473.485817 437.053604 475.269163 434.286761 474.727726 431.579536 C474.186288 428.872311 470.713460 426.963555 468.429345 428.514373 C467.976982 420.150527 467.874019 411.767791 468.120810 403.395357 C462.977729 402.897398 457.796180 402.797250 452.637698 403.096102 M538.466009 314.746898 C537.189624 310.260864 535.478394 305.898666 533.364106 301.741329 C531.991474 302.256468 531.682126 304.109158 532.053015 305.527583 C532.423904 306.946008 533.243362 308.258931 533.318162 309.723135 C533.518189 313.638615 528.448582 317.157472 530.243000 320.643308 C529.215542 320.756999 528.188084 320.870689 527.160626 320.984379 C527.982046 318.319185 526.916748 315.183705 524.641730 313.570545 C523.818293 315.557297 524.028272 317.940623 525.186406 319.752791 C520.987025 319.602116 516.749860 320.768015 513.218702 323.045828 C516.317073 328.863875 517.216551 335.820031 515.699968 342.234823 C515.228785 344.227812 517.662787 346.029489 519.633086 345.470972 C521.603385 344.912455 522.781983 342.769449 522.878343 340.723787 C522.974702 338.678125 522.224514 336.698382 521.486309 334.788128 C520.194216 331.444589 522.471494 327.444039 525.791661 326.093025 C529.111827 324.742012 533.014428 325.624062 536.034980 327.554091 C536.038613 333.544453 536.042244 339.534814 536.045875 345.525175 C538.189873 347.051368 541.306205 344.864175 541.883914 342.296639 C542.461623 339.729103 541.492404 337.104624 541.017028 334.516187 C540.541651 331.927750 540.787826 328.796655 542.974317 327.331989 C545.257997 325.802220 544.196145 321.870715 541.760393 320.596942 C539.324640 319.323169 536.378604 319.859757 533.689148 320.427397 C532.801077 318.692106 533.194705 316.392869 534.609444 315.051817 C535.257970 316.368857 535.906496 317.685897 536.555022 319.002936 C538.388177 319.571535 538.991254 316.592942 538.466010 314.746898 M461.417996 387.554503 C457.854519 387.230697 454.371252 390.406929 454.365795 393.985083 C454.360338 397.563237 457.833901 400.750079 461.398349 400.437143 C464.962797 400.124208 467.827934 396.380868 467.199087 392.858402 C466.705255 390.092205 464.216398 387.808788 461.417996 387.554503 M549.350332 297.724541 C547.533513 297.530003 545.641215 298.382660 544.583369 299.872505 C542.845916 302.319493 543.857656 306.231258 546.563645 307.528992 C549.269634 308.826727 552.953422 307.166835 553.773911 304.280092 C554.594401 301.393349 552.334356 298.044061 549.350332 297.724542 M525.516137 304.949906 C525.598721 304.303108 525.675229 303.614631 525.395321 303.025717 C525.084563 302.371900 524.324985 301.963301 523.608162 302.064352 C520.741565 307.401442 519.252750 313.471199 519.324363 319.528983 C523.770963 316.387793 524.826618 310.350267 525.516137 304.949906 z"/></svg>
